<?xml version="1.0" encoding="UTF-8" standalone="no"?>
<!-- Created with Inkscape (http://www.inkscape.org/) -->

<svg
   xmlns:dc="http://purl.org/dc/elements/1.1/"
   xmlns:cc="http://creativecommons.org/ns#"
   xmlns:rdf="http://www.w3.org/1999/02/22-rdf-syntax-ns#"
   xmlns:svg="http://www.w3.org/2000/svg"
   xmlns="http://www.w3.org/2000/svg"
   xmlns:sodipodi="http://sodipodi.sourceforge.net/DTD/sodipodi-0.dtd"
   xmlns:inkscape="http://www.inkscape.org/namespaces/inkscape"
   width="49.514801mm"
   height="4.4372787mm"
   viewBox="0 0 49.514801 4.4372787"
   version="1.1"
   id="svg8"
   inkscape:version="0.92.2 5c3e80d, 2017-08-06"
   sodipodi:docname="drawing-no-pic.svg">
  <defs
     id="defs2" />
  <sodipodi:namedview
     id="base"
     pagecolor="#ffffff"
     bordercolor="#666666"
     borderopacity="1.0"
     inkscape:pageopacity="0.0"
     inkscape:pageshadow="2"
     inkscape:zoom="1.979899"
     inkscape:cx="34.487484"
     inkscape:cy="-37.619715"
     inkscape:document-units="mm"
     inkscape:current-layer="layer2"
     showgrid="false"
     inkscape:window-width="1440"
     inkscape:window-height="855"
     inkscape:window-x="0"
     inkscape:window-y="1"
     inkscape:window-maximized="1"
     gridtolerance="1"
     objecttolerance="1"
     guidetolerance="1"
     fit-margin-top="0"
     fit-margin-left="0"
     fit-margin-right="0"
     fit-margin-bottom="0" />
  <metadata
     id="metadata5">
    <rdf:RDF>
      <cc:Work
         rdf:about="">
        <dc:format>image/svg+xml</dc:format>
        <dc:type
           rdf:resource="http://purl.org/dc/dcmitype/StillImage" />
        <dc:title></dc:title>
      </cc:Work>
    </rdf:RDF>
  </metadata>
  <g
     inkscape:groupmode="layer"
     id="layer2"
     inkscape:label="handwriting"
     style="display:inline;opacity:1"
     transform="translate(-21.036661,-75.078009)">
    <path
       style="opacity:1;fill:none;fill-opacity:0;fill-rule:evenodd;stroke:#000000;stroke-width:0.14128751;stroke-linecap:round;stroke-linejoin:miter;stroke-miterlimit:4;stroke-dasharray:none;stroke-dashoffset:0;stroke-opacity:1"
       d="m 23.185631,76.08503 c 0,0 -0.701582,1.236122 -0.334087,1.294587 0.367496,0.05846 1.060726,-0.960501 1.102487,-1.236122 0.04176,-0.275622 0.100227,-0.701582 -0.317382,-0.876978 -0.417609,-0.175396 -1.140024,0.240057 -1.486687,0.601356 -0.446596,0.46545 -0.902031,1.336346 -1.002261,1.829125 -0.10023,0.492779 -0.0084,0.776755 0.225509,0.868627 0.233861,0.09187 0.584652,0.292325 1.194361,-0.242212 0.609708,-0.534541 0.51378,-0.453885 0.51378,-0.453885"
       id="path97"
       inkscape:connector-curvature="0"
       sodipodi:nodetypes="cccsszzcc" />
    <path
       style="opacity:1;fill:none;fill-opacity:0;fill-rule:evenodd;stroke:#000000;stroke-width:0.14128749;stroke-linecap:round;stroke-linejoin:miter;stroke-miterlimit:4;stroke-dasharray:none;stroke-dashoffset:0;stroke-opacity:1"
       d="m 23.081351,77.869528 c 0,0 -0.346737,0.487293 -0.05441,0.537406 0.292326,0.05011 0.5763,-0.192101 0.593004,-0.325734 0.0167,-0.133636 0.133635,-0.392555 -0.350791,-0.350793 0,0 -0.08328,-0.02244 -0.187803,0.139121 z"
       id="path905"
       inkscape:connector-curvature="0" />
    <path
       style="opacity:1;fill:none;fill-opacity:0;fill-rule:evenodd;stroke:#000000;stroke-width:0.14128749;stroke-linecap:round;stroke-linejoin:miter;stroke-miterlimit:4;stroke-dasharray:none;stroke-dashoffset:0;stroke-opacity:1"
       d="m 23.077218,77.868303 c 0,0 0.120773,-0.04967 0.244798,-0.129402"
       id="path908"
       inkscape:connector-curvature="0"
       sodipodi:nodetypes="cc" />
    <path
       style="opacity:1;fill:none;fill-opacity:0;fill-rule:evenodd;stroke:#000000;stroke-width:0.14128749;stroke-linecap:round;stroke-linejoin:miter;stroke-miterlimit:4;stroke-dasharray:none;stroke-dashoffset:0;stroke-opacity:1"
       d="m 23.871559,78.187218 c 0,0 0.395693,-0.448847 0.519717,-0.437033 0.124023,0.0118 -0.0059,0.265763 -0.129929,0.496094 -0.124024,0.230327 -0.265765,0.442939 -0.04134,0.271668 0.224424,-0.17127 0.442941,-0.407506 0.537435,-0.466563 0.09449,-0.05906 0.07087,0.02363 0.04134,0.206706 -0.02953,0.183081 -0.147647,0.177175 -0.02362,0.2008 0.124023,0.02363 0.844541,-0.51972 0.891787,-0.572872 0.04725,-0.05315 -0.171276,0.18899 -0.153556,0.336637 0.01772,0.147647 0.277576,0.265765 0.679176,-0.141741 0,0 0.141741,-0.141741 0.212612,-0.165364 0.07087,-0.02362 -0.05906,0.224423 -0.106306,0.360258 -0.04725,0.135836 0.437035,-0.03543 0.661458,-0.301199 0,0 0.06312,-0.06463 0.125763,-0.04375 0.06264,0.02088 -0.187924,0.30903 -0.167043,0.3842 0.02088,0.07517 0.30903,0.04176 0.726639,-0.354968 0.01253,-0.02088 0.0042,-0.04176 0.07935,-0.07517 0.07517,-0.03341 -0.05011,0.263093 0,0.32991 0.05011,0.06682 0.410566,0.07869 0.611366,-0.03942 0.200799,-0.118118 0.425223,-0.248047 0.425223,-0.33073 0,-0.08268 -0.02067,-0.233282 -0.174223,-0.07973 -0.153553,0.153553 -0.215565,0.162412 -0.203753,0.268717 0.01181,0.106306 -0.02362,0.212612 0.212611,0.224424"
       id="path910"
       inkscape:connector-curvature="0"
       sodipodi:nodetypes="cccsccczsccccccccccsccc" />
    <path
       style="opacity:1;fill:none;fill-opacity:0;fill-rule:evenodd;stroke:#000000;stroke-width:0.14128749;stroke-linecap:round;stroke-linejoin:miter;stroke-miterlimit:4;stroke-dasharray:none;stroke-dashoffset:0;stroke-opacity:1"
       d="m 30.685882,77.605124 c 0.167043,-0.200451 0.551244,-0.701582 0.417608,-0.434313 -0.133633,0.267271 -1.286235,2.171565 -1.386459,2.255089 -0.100227,0.08352 -0.551243,-0.150339 0.267269,-0.601359 0.818512,-0.451016 1.68714,-0.88533 1.770661,-1.085781 0.08352,-0.200453 0.121106,-0.296504 -0.03341,-0.225509 -0.154516,0.07099 -0.183749,0.04176 -0.23386,0.275621 -0.05011,0.233862 -0.05011,0.334087 0.05011,0.367496 0.100227,0.03341 0.300678,0.06682 0.350792,0.05012"
       id="path912"
       inkscape:connector-curvature="0"
       sodipodi:nodetypes="ccccczzcc" />
    <path
       style="opacity:1;fill:none;fill-opacity:0;fill-rule:evenodd;stroke:#000000;stroke-width:0.14128749;stroke-linecap:round;stroke-linejoin:miter;stroke-miterlimit:4;stroke-dasharray:none;stroke-dashoffset:0;stroke-opacity:1"
       d="m 31.337353,76.552752 c 0.06681,0 0.100224,0.100224 0.05011,0.133633"
       id="path914"
       inkscape:connector-curvature="0" />
    <path
       style="opacity:1;fill:none;fill-opacity:0;fill-rule:evenodd;stroke:#000000;stroke-width:0.14128749;stroke-linecap:round;stroke-linejoin:miter;stroke-miterlimit:4;stroke-dasharray:none;stroke-dashoffset:0;stroke-opacity:1"
       d="m 34.222711,77.492476 c 0,0 -0.02768,-0.02577 -0.204854,0.293145 -0.177176,0.318917 0.122416,0.546791 0.287781,0.464111 0.165364,-0.08268 0.46817,-0.670825 0.674878,-1.131482 0.212611,-0.389787 -0.08859,-0.891788 -0.230329,-1.057152 0,0 -0.383883,-0.336629 -0.956753,0.188994 0,0 -0.165365,0.124024 -0.08268,0.253953 0.08268,0.129929 0.525623,0.324823 0.720517,0.118118 0.194894,-0.206706 0.289388,-0.242141 0.153553,-0.348447 -0.135836,-0.106306 -0.283483,-0.124024 -0.460659,-0.112212 -0.177176,0.01181 -0.478376,0.230329 -0.537435,0.348447"
       id="path916"
       inkscape:connector-curvature="0"
       sodipodi:nodetypes="cczcc" />
    <path
       style="opacity:1;fill:none;fill-opacity:0;fill-rule:evenodd;stroke:#000000;stroke-width:0.14128749;stroke-linecap:round;stroke-linejoin:miter;stroke-miterlimit:4;stroke-dasharray:none;stroke-dashoffset:0;stroke-opacity:1"
       d="m 34.889357,78.016665 c 0,0 0.681744,-0.213327 0.740805,-0.431845 0.05906,-0.218518 0.05905,-0.265762 -0.0059,-0.28939 -0.06497,-0.02363 -0.147646,-0.0059 -0.21261,0.177178 -0.06497,0.183081 -0.129931,0.277577 -0.05906,0.407506 0.07087,0.129929 0.05906,0.212611 0.248047,0.2008 0.188989,-0.0118 0.490188,-0.177178 0.602401,-0.301202 0.112209,-0.124023 0.383881,-0.271669 0.425222,-0.336634 0.04134,-0.06496 0.06497,-0.09449 0.106307,-0.02953 0.04133,0.06496 0.06497,-0.03544 -0.02952,0.147646 -0.09449,0.183083 -0.159459,0.318918 -0.253953,0.377975 -0.0945,0.05906 -0.147648,0.08859 -0.253952,0.04725 -0.106307,-0.04134 0.124024,-0.0059 -0.194895,-0.04725"
       id="path918"
       inkscape:connector-curvature="0"
       sodipodi:nodetypes="czzccccczcccc" />
    <path
       style="opacity:1;fill:none;fill-opacity:0;fill-rule:evenodd;stroke:#000000;stroke-width:0.14128749;stroke-linecap:round;stroke-linejoin:miter;stroke-miterlimit:4;stroke-dasharray:none;stroke-dashoffset:0;stroke-opacity:1"
       d="m 37.460983,77.407642 c 0,0 0.448847,-0.124023 0.289388,-0.147645 -0.159459,-0.02363 -0.413411,0.2008 -0.448847,0.283482 -0.03544,0.08268 -0.118118,0.253952 -0.05906,0.37207 0.05906,0.118118 0.289388,0.242142 0.549246,0.124024 0.259858,-0.118118 0.690989,-0.56106 0.685083,-0.667364 -0.0059,-0.106307 -0.100401,-0.218519 -0.177178,-0.118118 -0.07677,0.100399 -0.295293,0.277574 -0.336635,0.413412 -0.04134,0.135834 -0.08859,0.206705 -0.03543,0.277574 0.05316,0.07087 -0.0118,0.153553 0.194894,0.100401 0.206706,-0.05315 0.838634,-0.490188 0.885884,-0.531529 0.02953,-0.01181 0.141737,-0.100399 0.118114,-0.02953 -0.02362,0.07087 -0.295294,0.318917 -0.218518,0.425223 0.07678,0.106306 0.543341,-0.118118 0.832729,-0.330729 l 0.107563,-0.107422 c 0,0 0.05011,-0.0084 -0.02506,0.133635 -0.07517,0.141987 -0.217157,0.217156 -0.125283,0.267269 0.09187,0.05011 0.257398,0.04028 0.320336,0.01874"
       id="path920"
       inkscape:connector-curvature="0"
       sodipodi:nodetypes="ccccsccccccccccccc" />
    <path
       style="opacity:1;fill:none;fill-opacity:0;fill-rule:evenodd;stroke:#000000;stroke-width:0.14128749;stroke-linecap:round;stroke-linejoin:miter;stroke-miterlimit:4;stroke-dasharray:none;stroke-dashoffset:0;stroke-opacity:1"
       d="m 40.272181,77.779712 c 0.34254,-0.188986 0.414128,-0.289981 0.34254,-0.212611 -0.07159,0.07737 -0.153551,0.301202 0.01183,0.318918 0.165365,0.01773 0.578776,-0.2008 0.667364,-0.496093 0.08859,-0.295294 0.09701,-0.530262 0.04134,-0.67327 -0.04143,-0.106423 -0.04528,-0.172343 -0.224438,-0.360258 -0.470579,-0.428387 -0.724394,-0.410264 -1.281576,-0.448849 -0.230329,0 -0.407505,0.02953 -0.496094,0.08859 -0.08859,0.05906 -0.124023,0.188989 -0.124023,0.3012 0,0.112212 0.07678,0.218518 0.283482,0.271671 0.206706,0.05315 0.661459,0.112211 0.809105,0.112211"
       id="path922"
       inkscape:connector-curvature="0"
       sodipodi:nodetypes="czccscccscc" />
    <path
       style="opacity:1;fill:none;fill-opacity:0;fill-rule:evenodd;stroke:#000000;stroke-width:0.14128749;stroke-linecap:round;stroke-linejoin:miter;stroke-miterlimit:4;stroke-dasharray:none;stroke-dashoffset:0;stroke-opacity:1"
       d="m 41.639392,77.691125 c 0.283482,-0.02657 0.68213,-0.369118 0.454752,-0.15946 -0.227375,0.209662 -0.327776,0.507908 -0.132882,0.425226 0.194895,-0.08268 0.372071,-0.251 0.392743,-0.292341 0.02066,-0.04134 -0.02659,-0.224424 -0.180131,-0.200802 0,0 0.296924,-0.109185 0.28022,0.09962 -0.0167,0.208804 -0.0167,0.300678 0.02506,0.334087 0.04176,0.03341 0.776752,-0.283974 0.860273,-0.451017 0.08352,-0.167044 -0.250565,0.141987 -0.09187,0.283974 0.158691,0.141986 0.542891,0.100226 0.701582,-0.04176 0.158691,-0.141987 0.409257,-0.309031 0.476074,-0.350792 0.06682,-0.04176 0.120129,0.01199 0.04767,0.27377 -0.06656,0.244065 -0.02262,0.227361 -0.273176,0.277474"
       id="path924"
       inkscape:connector-curvature="0"
       sodipodi:nodetypes="ccccccccccccc" />
    <path
       style="opacity:1;fill:none;fill-opacity:0;fill-rule:evenodd;stroke:#000000;stroke-width:0.14128749;stroke-linecap:round;stroke-linejoin:miter;stroke-miterlimit:4;stroke-dasharray:none;stroke-dashoffset:0;stroke-opacity:1"
       d="m 43.406242,76.669682 c 0.141986,0.150339 0.01669,0.05847 0.08352,0.100227"
       id="path926"
       inkscape:connector-curvature="0" />
    <path
       style="opacity:1;fill:none;fill-opacity:0;fill-rule:evenodd;stroke:#000000;stroke-width:0.14128749;stroke-linecap:round;stroke-linejoin:miter;stroke-miterlimit:4;stroke-dasharray:none;stroke-dashoffset:0;stroke-opacity:1"
       d="m 46.17081,77.438082 c 0,0 -0.200451,0.501129 -0.06682,0.601356 0.133636,0.100227 0.367496,-0.01669 0.451019,-0.08352 0.08352,-0.06682 0.409255,-0.542893 0.417608,-0.88533 -0.05011,-0.283975 -0.114903,-0.623793 -0.384199,-0.785106 -0.269296,-0.161313 -0.785106,-0.06682 -0.902036,0.100226 -0.11693,0.167045 -0.217157,0.233863 -0.11693,0.334087 0.100227,0.100227 0.150339,0.08352 0.150339,0.08352"
       id="path930"
       inkscape:connector-curvature="0"
       sodipodi:nodetypes="cccczccc" />
    <path
       style="opacity:1;fill:none;fill-opacity:0;fill-rule:evenodd;stroke:#000000;stroke-width:0.14128749;stroke-linecap:round;stroke-linejoin:miter;stroke-miterlimit:4;stroke-dasharray:none;stroke-dashoffset:0;stroke-opacity:1"
       d="m 47.290003,77.772169 c 0.08352,0 0.530484,-0.01569 0.701582,-0.183748 0.194718,-0.162151 0.334086,-0.283975 0.167042,-0.334086 -0.167044,-0.05011 -0.324129,-0.08167 -0.451017,0.116929 -0.05011,0.133636 -0.08352,0.35079 -0.08352,0.35079 0,0 0.05011,0.183748 0.217157,0.183748 0.167042,0 0.968851,-0.501129 1.085781,-0.567946 0.11693,-0.06682 0.250566,-0.05011 0.200454,0.08352 -0.05012,0.133635 -0.183748,0.300677 -0.317384,0.334086"
       id="path932"
       inkscape:connector-curvature="0"
       sodipodi:nodetypes="cczccsccc" />
    <path
       style="opacity:1;fill:none;fill-opacity:0;fill-rule:evenodd;stroke:#000000;stroke-width:0.14128749;stroke-linecap:round;stroke-linejoin:miter;stroke-miterlimit:4;stroke-dasharray:none;stroke-dashoffset:0;stroke-opacity:1"
       d="m 53.520723,75.149587 -0.133636,0.334087 c 0,0 -1.00226,-0.167045 -1.570207,0.100224 -0.567949,0.267272 -0.904993,0.637076 -1.135896,0.935445 -0.230903,0.298369 -0.300677,0.517835 -0.334086,0.718286 -0.03341,0.200453 -0.0543,0.388372 0.01669,0.484425 0.07099,0.09605 0.09628,0.133696 0.267269,0.133636 0.170985,-6e-5 0.178438,0.01632 0.367495,-0.217157 0.189057,-0.233473 0.885331,-1.353052 0.968854,-1.5368 0.195732,-0.230995 -0.283974,0.567949 -0.434313,0.65147 -0.150339,0.08352 -0.594613,0.158271 -0.233863,0.03341 0.36075,-0.124861 0.200454,-0.183748 0.618062,-0.05011"
       id="path934"
       inkscape:connector-curvature="0"
       sodipodi:nodetypes="ccczczzzcczc" />
    <path
       style="opacity:1;fill:none;fill-opacity:0;fill-rule:evenodd;stroke:#000000;stroke-width:0.14128749;stroke-linecap:round;stroke-linejoin:miter;stroke-miterlimit:4;stroke-dasharray:none;stroke-dashoffset:0;stroke-opacity:1"
       d="m 52.451645,77.337856 c 0.125282,-0.05846 1.165129,-0.672349 1.336347,-0.902034 0.171218,-0.229685 0.215899,-0.420805 0.08352,-0.551243 -0.07238,-0.07131 -0.183748,-0.08352 -0.300678,0.05011 -0.11693,0.133635 -0.250566,0.35079 -0.367496,0.567946 -0.11693,0.217157 -0.501128,0.851922 -0.501128,0.952148 0,0.100227 -0.03341,0.283975 0.05011,0.317384 0.08352,0.03341 0.250565,0.03341 0.467722,-0.03341 0.217154,-0.06682 0.367496,-0.150339 0.501129,-0.250566 0.133636,-0.100226 0.317384,-0.400904 0.317384,-0.467722 0,-0.06681 -0.250566,-0.05011 -0.350793,0.06682 -0.100224,0.11693 -0.200451,0.317383 -0.200451,0.434313 0,0.11693 -0.01669,0.183748 0.08352,0.183748 0.100227,0 0.501131,-0.100227 0.634765,-0.150339 0.133635,-0.05011 0.516606,-0.58444 0.350792,-0.367495 -0.165814,0.216945 -0.451013,0.501132 -0.217152,0.584654 0.233861,0.08352 0.584652,-0.183748 0.701582,-0.300679 0.116931,-0.11693 0.153521,-0.298534 0.133635,-0.200452 -0.01989,0.09808 -0.250565,0.250565 -0.0167,0.26727 0.233861,0.0167 0.777431,-0.242173 0.88533,-0.334087 0.225509,-0.1921 0.26727,-0.350791 0.100226,-0.03341 -0.217156,0.321559 -0.3842,0.467722 -0.167043,0.400904 0.217156,-0.06682 0.261609,-0.04364 0.448817,-0.233687 0.105833,-0.145569 0.198684,-0.324389 0.202655,-0.267443 4e-6,0.133634 -0.08352,0.150339 0,0.26727 0.06264,0.07517 0.141987,0.200452 0.501131,0.133634 0.350791,-0.183748 0.267269,-0.100225 0.467721,-0.367495 0.100227,-0.158692 -0.0042,-0.212981 -0.200452,-0.150339 -0.277918,0.0887 -0.3842,0.467721 -0.250565,0.551243 0.133635,0.08352 0.250565,0.100226 0.334087,0.06682 0.08352,-0.03341 0.601356,-0.334087 0.718287,-0.434313 0.220137,-0.168611 0.410316,0.0042 0.283974,0.283974 -0.139368,0.1921 -0.250566,0.434313 -0.467722,0.367496 -0.217157,-0.06682 -0.04176,-0.137811 0.02506,-0.171219 0.196279,-0.02506 0.154515,-2e-6 0.221332,-2e-6"
       id="path936"
       inkscape:connector-curvature="0"
       sodipodi:nodetypes="czsccscccscssczcczcscccccccsccccccc" />
    <path
       style="opacity:1;fill:none;fill-opacity:0;fill-rule:evenodd;stroke:#000000;stroke-width:0.14128749;stroke-linecap:round;stroke-linejoin:miter;stroke-miterlimit:4;stroke-dasharray:none;stroke-dashoffset:0;stroke-opacity:1"
       d="m 60.606119,75.883928 c 0,0 -0.129929,0.106304 -0.02363,0.248047"
       id="path940"
       inkscape:connector-curvature="0" />
    <path
       style="opacity:1;fill:none;fill-opacity:0;fill-rule:evenodd;stroke:#000000;stroke-width:0.14128749;stroke-linecap:round;stroke-linejoin:miter;stroke-miterlimit:4;stroke-dasharray:none;stroke-dashoffset:0;stroke-opacity:1"
       d="m 60.098214,77.537574 c 0,0 0.401601,-0.38979 0.425223,-0.437036 0.02363,-0.04725 -0.248047,0.318918 -0.307105,0.472471 -0.05906,0.153551 -0.153553,0.177176 -0.118118,0.295294 0.03544,0.118118 0.944941,-0.318918 1.110306,-0.614212 0,0 -0.188989,0.271671 -0.188989,0.413412 0,0.141741 0.01181,0.224423 0.2008,0.118118 0.188988,-0.106306 0.67327,-0.413412 0.67327,-0.413412 0,0 -0.09449,0.09449 -0.05906,0.248047 0.03544,0.153553 -0.04725,0.224423 0.188988,0.08268 0.236235,-0.141741 0.318917,-0.248047 0.318917,-0.248047 0,0 -0.01181,-0.03544 0.01181,0.118118 0.02362,0.153553 -0.07087,0.177176 0.118117,0.2008 0.188989,0.02362 1.122117,-0.744141 1.216611,-0.850447 0.09449,-0.106305 -1.34654,1.889881 -1.405599,1.984375 -0.05906,0.09449 1.370164,-1.807198 1.523717,-1.570963 0.153553,0.236235 0.02362,0.141741 0.02362,0.377976 0,0.236235 -0.07087,0.248047 0,0.248047 0,0 0.200807,-0.02362 0.224431,-0.08268"
       id="path944"
       inkscape:connector-curvature="0" />
    <path
       style="opacity:1;fill:none;fill-opacity:0;fill-rule:evenodd;stroke:#000000;stroke-width:0.14128749;stroke-linecap:round;stroke-linejoin:miter;stroke-miterlimit:4;stroke-dasharray:none;stroke-dashoffset:0;stroke-opacity:1"
       d="m 64.362258,77.655692 c 0.307104,-0.0945 0.318918,-0.153554 0.318918,-0.153554 0,0 -0.259861,0.188987 -0.165365,0.248047 0.09449,0.05906 0.389787,-0.106307 0.413412,-0.307107 0.02363,-0.200798 -0.05906,-0.165365 -0.212611,0.01183"
       id="path946"
       inkscape:connector-curvature="0" />
    <path
       style="opacity:1;fill:none;fill-opacity:0;fill-rule:evenodd;stroke:#000000;stroke-width:0.14128749;stroke-linecap:round;stroke-linejoin:miter;stroke-miterlimit:4;stroke-dasharray:none;stroke-dashoffset:0;stroke-opacity:1"
       d="m 64.941034,77.313149 c 0,0 -0.07087,0.248047 0.02363,0.377976 0.09449,0.129931 0.07087,0.129931 0.177176,0.106306 0.106304,-0.02363 0.318918,-0.08268 0.437033,-0.212611"
       id="path948"
       inkscape:connector-curvature="0" />
    <path
       style="opacity:1;fill:none;fill-opacity:0;fill-rule:evenodd;stroke:#000000;stroke-width:0.14128749;stroke-linecap:round;stroke-linejoin:miter;stroke-miterlimit:4;stroke-dasharray:none;stroke-dashoffset:0;stroke-opacity:1"
       d="m 65.597965,77.588421 c 0,0 0.684877,-0.501131 0.751695,-0.618061 0.06682,-0.11693 -0.417608,0.618061 -0.534541,0.818512 -0.11693,0.200454 -0.250563,0.283975 -0.317381,0.334087 -0.06682,0.05012 0.367496,-0.400905 0.534538,-0.46772 0.167045,-0.06682 0.65147,-0.434313 0.701582,-0.53454 0.05012,-0.100227 -0.200451,0.734991 -0.35079,0.902036 -0.150338,0.167042 -0.300677,0.217154 -0.183747,0.06682 0.11693,-0.150339 0.417607,-0.367496 0.584652,-0.451017 0.167042,-0.08352 0.317381,-0.167042 0.317381,-0.167042 0,0 -0.150339,0.100224 -0.100224,0.250563 0.05011,0.150342 0.150339,0.200454 0.250563,0.150342 0.100227,-0.05011 0.642279,-0.287576 0.748586,-0.370258 0,0 0.354353,-0.342545 0.47247,-0.543345 0.118118,-0.2008 0.425224,-0.67327 0.342541,-0.67327 -0.08268,0 -0.626023,0.850446 -0.696893,0.992187 -0.07087,0.141741 -0.165365,0.507906 -0.188988,0.578776 -0.02362,0.07087 0.141741,0.236235 0.141741,0.188988 0,-0.04725 0.377976,-0.507905 0.401599,-0.637835 0.02362,-0.129929 -0.165364,-0.08268 -0.05906,0 0.106305,0.08268 1.098493,-0.54334 1.169364,-0.649646 0.07087,-0.106306 0.496093,-0.507906 0.496093,-0.649647 0,-0.141741 -0.354352,0.12993 -0.531529,0.425223 -0.177176,0.295294 -0.685082,0.968564 -0.661458,1.169364 0.02362,0.2008 -0.08268,0.448847 0.129929,0.354353 0.212612,-0.09449 0.661459,-0.425223 0.626023,-0.578776 -0.03543,-0.153553 -0.188988,-0.08268 -0.212611,0.09449 -0.02362,0.177176 0.165364,0.342541 0.224423,0.307106 0.05906,-0.03544 0.732329,-0.496094 0.803199,-0.590588 0.07087,-0.09449 -0.03543,0.377976 -0.08268,0.543341 -0.04725,0.165364 -0.248047,0.425223 -0.248047,0.295294 0,-0.12993 -0.2008,-0.212612 0.01181,-0.271671"
       id="path952"
       inkscape:connector-curvature="0" />
    <path
       style="opacity:1;fill:none;fill-opacity:0;fill-rule:evenodd;stroke:#000000;stroke-width:0.14128749;stroke-linecap:round;stroke-linejoin:miter;stroke-miterlimit:4;stroke-dasharray:none;stroke-dashoffset:0;stroke-opacity:1"
       d="m 67.823103,76.096539 c 0,0.04725 -0.106307,0.129929 0.0118,0.2008"
       id="path954"
       inkscape:connector-curvature="0" />
  </g>
</svg>
